<?xml version="1.0" encoding="iso-8859-1"?>
<!-- Uploaded to: SVG Repo, www.svgrepo.com, Generator: SVG Repo Mixer Tools -->
<svg fill="#000000" height="800px" width="800px" version="1.1" id="Capa_1" xmlns="http://www.w3.org/2000/svg" xmlns:xlink="http://www.w3.org/1999/xlink" 
	 viewBox="0 0 490 490" xml:space="preserve">
<g>
	<path d="M301.465,0h-112.93c-23.735,0-43.059,17.15-43.059,38.221v413.56c0,21.07,19.309,38.22,43.059,38.22h112.93
		c23.734,0,43.058-17.15,43.058-38.22V38.221C344.523,17.15,325.215,0,301.465,0z M226.633,63.486c0-4.502,3.691-8.192,8.192-8.192
		h20.32c4.502,0,8.192,3.69,8.192,8.192v0.337c0,4.501-3.69,8.177-8.192,8.177h-20.32c-4.501,0-8.192-3.691-8.192-8.193V63.486z
		 M307.551,184.47c0,12.787-9.961,23.153-22.249,23.153c-12.287,0-22.249-10.366-22.249-23.153c0-12.786,9.962-23.152,22.249-23.152
		C297.59,161.318,307.551,171.683,307.551,184.47z M212.338,325.973c-12.287,0-22.248-10.366-22.248-23.153
		c0-12.786,9.961-23.153,22.248-23.153c12.288,0,22.249,10.367,22.249,23.153C234.587,315.607,224.626,325.973,212.338,325.973z
		 M212.338,266.805c-12.287,0-22.248-10.366-22.248-23.153c0-12.786,9.961-23.152,22.248-23.152
		c12.288,0,22.249,10.366,22.249,23.152C234.587,256.44,224.626,266.805,212.338,266.805z M212.338,207.622
		c-12.287,0-22.248-10.366-22.248-23.153c0-12.786,9.961-23.152,22.248-23.152c12.288,0,22.249,10.366,22.249,23.152
		C234.587,197.257,224.626,207.622,212.338,207.622z M308.93,302.345c-0.016,13-10.642,23.628-23.628,23.628
		c-12.984,0-23.627-10.627-23.627-23.628v-58.249c0-12.984,10.626-23.627,23.627-23.627c12.985,0,23.628,10.626,23.628,23.627
		V302.345z"/>
</g>
</svg>